<svg width="41" height="40" viewBox="0 0 41 40" fill="none" xmlns="http://www.w3.org/2000/svg">
<rect width="40.354" height="40" rx="12" fill="black"/>
<path d="M14.4075 23.9697L11.5113 17.3882H7.56641L12.4101 28.4393H16.3549L21.1986 17.3882H17.3037L14.4075 23.9697Z" fill="white"/>
<path d="M14.3575 11.3957C16.0054 11.3957 17.3536 12.7218 17.3536 14.3426H21.1986C21.3484 10.7571 18.5021 7.66285 14.8569 7.5155C14.807 7.5155 14.757 7.5155 14.7071 7.5155C11.0119 7.26992 7.81608 9.97129 7.56641 13.6059C7.56641 13.655 7.56641 13.7041 7.56641 13.7532C7.56641 13.9497 7.56641 14.1953 7.56641 14.3917H11.3615C11.3615 12.7218 12.7097 11.3957 14.3575 11.3957Z" fill="white"/>
<path d="M26.6915 17.3882H22.8466V28.3901H26.6915V17.3882Z" fill="white"/>
<path d="M33.2698 17.3882H29.4248V28.3901H33.2698V17.3882Z" fill="white"/>
</svg>
