<svg width="226" height="48" viewBox="0 0 226 48" fill="none" xmlns="http://www.w3.org/2000/svg">
<rect width="48" height="48" rx="12" fill="#251616"/>
<path d="M17.1373 28.7636L13.6923 20.8657H9L14.7614 34.127H19.4537L25.2151 20.8657H20.5822L17.1373 28.7636Z" fill="white"/>
<path d="M17.0779 13.6748C19.0379 13.6748 20.6416 15.2661 20.6416 17.2111H25.2151C25.3933 12.9086 22.0078 9.19541 17.6718 9.0186C17.6124 9.0186 17.553 9.0186 17.4936 9.0186C13.0983 8.7239 9.29698 11.9656 9 16.327C9 16.386 9 16.4449 9 16.5039C9 16.7396 9 17.0343 9 17.2701H13.5141C13.5141 15.2661 15.1178 13.6748 17.0779 13.6748Z" fill="white"/>
<path d="M31.7488 20.8657H27.1753V34.0681H31.7488V20.8657Z" fill="white"/>
<path d="M39.5735 20.8657H35V34.0681H39.5735V20.8657Z" fill="white"/>
<path d="M69.76 24.255H65.9459V32.76H61.8141V24.255H58V21H69.76V24.255Z" fill="#251616"/>
<path d="M73.673 31.9935C70.9036 30.5626 69.8156 27.0876 71.2003 24.2259C71.7443 23.1016 72.6345 22.2329 73.673 21.6708C74.6621 21.2109 75.7501 20.9553 76.8876 21.0064C78.025 21.0064 79.113 21.262 80.1515 21.773C82.9704 23.3061 84.009 26.8832 82.5253 29.745C82.4759 29.7961 82.4759 29.8472 82.4264 29.8983C81.8824 30.8181 81.1406 31.5335 80.201 31.9935C79.2119 32.5045 78.0745 32.76 76.937 32.76C75.849 32.76 74.7116 32.5045 73.673 31.9935ZM78.569 28.8251C79.0141 28.263 79.2614 27.5476 79.2119 26.8321C79.2614 26.1167 79.0141 25.4013 78.569 24.8391C78.1239 24.3792 77.5305 24.0726 76.8876 24.1237C76.2447 24.1237 75.6512 24.3792 75.2061 24.8391C74.761 25.4013 74.5138 26.1167 74.5632 26.8321C74.5138 27.5476 74.761 28.263 75.2061 28.8251C75.6512 29.3361 76.2447 29.5917 76.8876 29.5405C77.5305 29.5917 78.1734 29.3361 78.569 28.8251Z" fill="#251616"/>
<path d="M95.8 21.0523V32.76H91.8166V28.5787C90.8974 29.0491 89.9271 29.2581 88.9057 29.2581C87.6289 29.3627 86.3011 28.9968 85.2797 28.1605C84.4116 27.2197 83.9519 25.9653 84.0541 24.6587V21H88.0886V24.3451C88.0375 24.8677 88.1907 25.3381 88.4971 25.7563C88.8546 26.0699 89.3142 26.2267 89.7739 26.1744C90.4888 26.1744 91.1527 26.0176 91.7656 25.704V21L95.8 21.0523Z" fill="#251616"/>
<path d="M103.612 28.5264H102.302V32.7077H98.3201V21H102.302V25.3381H103.713L106.485 21H110.668L106.888 26.6448L110.92 32.76H106.233L103.612 28.5264Z" fill="#251616"/>
<path d="M121.208 22.2386C122.231 23.2579 122.766 24.7361 122.669 26.2142V32.5853H119.066V31.0563C118.385 32.2285 117.119 32.8911 115.853 32.7382C115.123 32.7382 114.344 32.5853 113.662 32.2795C112.494 31.7698 111.764 30.5466 111.764 29.2214C111.715 28.202 112.153 27.2845 112.981 26.7239C114.1 26.0613 115.366 25.7045 116.632 25.8064H118.823C118.774 24.6341 117.995 24.0735 116.486 24.0735C115.95 24.0735 115.415 24.1754 114.879 24.3283C114.393 24.4812 113.906 24.7361 113.516 25.0419L112.251 22.3405C112.932 21.8818 113.662 21.576 114.441 21.3721C115.318 21.1682 116.194 21.0153 117.07 21.0153C118.531 20.9134 119.991 21.3211 121.208 22.2386ZM118.092 29.884C118.433 29.6291 118.677 29.2723 118.823 28.9155V27.9471H117.168C116.048 27.9471 115.512 28.3039 115.512 29.1194C115.512 29.4252 115.658 29.782 115.902 29.9349C116.194 30.1388 116.583 30.2917 116.973 30.2407C117.314 30.2407 117.752 30.1388 118.092 29.884Z" fill="#251616"/>
<path d="M145.36 29.4937V35.28H141.728V32.8381H134.712V35.28H131.08V29.4937H131.478C132.125 29.4937 132.722 29.0159 132.871 28.3258C133.17 27.3172 133.319 26.2024 133.369 25.1407L133.518 21H143.867V29.5468L145.36 29.4937ZM136.653 27.9011C136.603 28.4851 136.354 29.0159 136.056 29.4937H139.937V24.2382H136.951V25.4061C136.902 26.2555 136.802 27.1579 136.653 28.0073V27.9011Z" fill="#251616"/>
<path d="M149.512 31.9997C146.527 30.5803 145.355 27.1334 146.847 24.2948C147.433 23.1797 148.392 22.3179 149.512 21.7603C151.697 20.7466 154.255 20.7466 156.44 21.7603C158.466 22.7234 159.692 24.751 159.638 26.88C159.638 27.9445 159.372 29.009 158.786 29.9214C158.199 30.8338 157.346 31.5435 156.387 31.9997C155.321 32.5066 154.095 32.76 152.923 32.76C151.75 32.76 150.578 32.5066 149.512 31.9997ZM154.788 28.8569C155.268 28.2993 155.534 27.5897 155.481 26.88C155.534 26.1703 155.268 25.4607 154.788 24.9031C154.309 24.4469 153.669 24.1428 152.976 24.1934C152.283 24.1934 151.644 24.4469 151.164 24.9031C150.684 25.4607 150.418 26.1703 150.471 26.88C150.418 27.5897 150.684 28.2993 151.164 28.8569C151.644 29.3638 152.283 29.6172 152.976 29.5666C153.669 29.6172 154.362 29.3638 154.788 28.8569Z" fill="#251616"/>
<path d="M163.808 32.145C162.79 31.6788 161.933 30.9536 161.343 30.0212C160.754 29.0887 160.432 28.0009 160.486 26.9131C160.432 24.6856 161.718 22.6136 163.808 21.6811C164.934 21.1631 166.167 20.9559 167.399 21.0077C168.632 20.9559 169.864 21.2667 170.936 21.8365C171.901 22.3546 172.651 23.1316 173.08 24.064L169.864 25.618C169.489 24.6856 168.525 24.064 167.453 24.064C166.756 24.064 166.059 24.323 165.577 24.7892C165.041 25.359 164.773 26.0843 164.827 26.8095C164.773 27.5347 165.041 28.3117 165.577 28.8297C166.059 29.3477 166.756 29.6067 167.453 29.5549C168.525 29.5549 169.436 28.9333 169.864 28.0009L173.08 29.5549C172.651 30.5392 171.901 31.368 170.936 31.886C169.864 32.4558 168.632 32.7666 167.399 32.7148C166.167 32.8702 164.934 32.6112 163.808 32.145Z" fill="#251616"/>
<path d="M184.84 24.255H181.298V32.76H177.462V24.255H173.92V21H184.84V24.255Z" fill="#251616"/>
<path d="M199.96 21L195.045 33.0694C194.644 34.2608 193.942 35.2968 192.989 36.0738C192.087 36.6954 191.033 37.0062 189.98 36.9544C189.379 36.9544 188.777 36.8508 188.175 36.6954C187.623 36.54 187.122 36.281 186.67 35.9184L188.024 33.0694C188.275 33.2766 188.526 33.4838 188.827 33.5874C189.128 33.691 189.429 33.7428 189.78 33.7428C190.081 33.7428 190.432 33.691 190.682 33.5356C190.933 33.3284 191.184 33.0694 191.284 32.8104L186.52 21H190.582L193.34 28.0966L196.249 21H199.96Z" fill="#251616"/>
<path d="M212.56 21V32.76H208.589V24.255H204.771V32.76H200.8V21H212.56Z" fill="#251616"/>
<path d="M224.415 22.2052C225.516 23.2278 226.093 24.7106 225.988 26.1934V32.5848H222.161V31.0508C221.427 32.2269 220.063 32.8916 218.7 32.7382C217.914 32.7382 217.075 32.5848 216.341 32.278C215.712 32.0223 215.135 31.5622 214.768 30.9997C214.401 30.4373 214.244 29.8237 214.244 29.2101C214.192 28.1875 214.663 27.2672 215.502 26.7047C216.708 26.04 218.071 25.6821 219.434 25.7844H221.794C221.794 24.5572 220.902 23.9948 219.329 23.9948C218.753 23.9948 218.176 24.097 217.599 24.2504C217.075 24.4038 216.551 24.6595 216.131 24.9663L214.716 22.2563C215.45 21.7961 216.236 21.4894 217.075 21.2848C218.019 21.0803 218.962 21.0292 219.906 21.0292C221.531 20.8758 223.157 21.336 224.415 22.2052ZM221.06 29.8748C221.427 29.6192 221.689 29.2613 221.846 28.9033V27.9319H220.063C218.858 27.9319 218.281 28.2898 218.281 29.1079C218.281 29.4147 218.438 29.7726 218.7 29.926C219.015 30.1816 219.434 30.2839 219.854 30.2328C220.273 30.2328 220.693 30.1305 221.06 29.8748Z" fill="#251616"/>
</svg>
