<?xml version="1.0" standalone="no"?>
<!DOCTYPE svg PUBLIC "-//W3C//DTD SVG 20010904//EN"
 "http://www.w3.org/TR/2001/REC-SVG-20010904/DTD/svg10.dtd">
<svg version="1.0" xmlns="http://www.w3.org/2000/svg"
 width="656.000000pt" height="656.000000pt" viewBox="0 0 656.000000 656.000000"
 preserveAspectRatio="xMidYMid meet">
<metadata>
Created by potrace 1.11, written by Peter Selinger 2001-2013
</metadata>
<g transform="translate(0.000000,656.000000) scale(0.100000,-0.100000)"
fill="#000000" stroke="none">
<path d="M1675 6464 c-424 -57 -788 -232 -1088 -523 -323 -313 -513 -693 -572
-1144 -23 -176 -23 -2857 0 -3034 58 -449 254 -838 576 -1148 273 -262 605
-432 994 -507 109 -22 127 -22 1570 -26 1019 -2 1493 0 1570 8 227 23 445 84
650 184 618 299 1019 889 1075 1580 14 174 14 2678 0 2851 -76 935 -782 1663
-1712 1764 -156 17 -2934 13 -3063 -5z m785 -1194 c243 -32 454 -135 626 -308
180 -179 287 -416 301 -664 l6 -108 -306 0 -306 0 -6 38 c-27 179 -120 308
-275 381 -270 128 -589 -21 -666 -312 -7 -28 -14 -67 -14 -84 l0 -33 -305 0
-305 0 0 74 c0 158 51 342 135 490 217 382 650 586 1115 526z m-388 -2094
c125 -286 230 -521 232 -523 2 -2 107 232 233 519 l230 523 313 3 c248 2 311
0 307 -10 -3 -7 -177 -406 -388 -885 l-382 -873 -316 0 -316 0 -364 833 c-201
457 -375 856 -388 885 l-23 52 317 -2 316 -3 229 -519z m2198 -356 l0 -880
-305 0 -305 0 0 880 0 880 305 0 305 0 0 -880z m1050 0 l0 -880 -305 0 -305 0
0 880 0 880 305 0 305 0 0 -880z"/>
</g>
</svg>
